<svg width="25" height="27" viewBox="0 0 25 27" fill="none" xmlns="http://www.w3.org/2000/svg">
<path d="M14.2568 15.5184L15.6654 22.1378C15.7872 22.7097 15.4218 23.271 14.8499 23.3928L6.04349 25.2622C5.47157 25.384 4.91025 25.0186 4.78845 24.4466L1.15574 7.35272C1.03395 6.7808 1.39932 6.21948 1.97124 6.09769L7.07612 5.01215" stroke="#1D1D1B" stroke-width="1.5" stroke-miterlimit="10"/>
<path d="M4.349 22.3761L15.226 20.0673" stroke="#1D1D1B" stroke-width="1.5" stroke-miterlimit="10"/>
<path d="M9.33734 22.9428L10.8942 22.6091" stroke="#1D1D1B" stroke-width="1.5" stroke-miterlimit="10"/>
<path d="M16.0891 1.24176C11.7044 1.24176 8.14581 4.08545 8.14581 7.59637C8.14581 9.25386 8.94545 10.7578 10.2428 11.8857C10.1687 13.0719 9.89865 14.9041 9.59681 15.905C9.44854 16.4081 9.82451 16.7629 10.2534 16.5193C11.2596 15.9368 12.9065 14.6817 14.0503 13.7338C14.7017 13.8715 15.3795 13.951 16.0838 13.951C20.4685 13.951 24.0271 11.1073 24.0271 7.59637C24.0271 4.08545 20.4685 1.24176 16.0838 1.24176H16.0891Z" stroke="#1D1D1B" stroke-width="1.5" stroke-miterlimit="10"/>
</svg>
