<svg width="20" height="20" viewBox="0 0 20 20" fill="none" xmlns="http://www.w3.org/2000/svg">
<path d="M14.1722 11.5321C14.0354 11.492 13.8974 11.4565 13.7595 11.4209C13.4841 11.3499 13.2087 11.2788 12.9422 11.1722C12.2622 10.9022 11.7222 10.9921 11.2622 11.5921C11.0122 11.9121 10.7222 11.9221 10.3522 11.7421C10.0422 11.5921 9.7522 11.3922 9.4722 11.1722C8.7222 10.5822 7.99222 9.96224 7.42222 9.18224C7.14222 8.80224 7.16217 8.55224 7.44217 8.18224C7.55217 8.04224 7.66219 7.90206 7.77219 7.75206C7.91219 7.56206 7.96217 7.34219 7.87217 7.13219C7.61217 6.51219 7.34216 5.89209 7.05216 5.28209C6.88216 4.93209 6.45218 4.79207 6.13218 5.01207C5.52218 5.44207 5.01221 5.98205 4.85221 6.74205C4.67221 7.61205 4.89216 8.43225 5.30216 9.19225C6.20216 10.8922 7.58222 12.1422 9.17222 13.1622C10.0522 13.7222 11.0022 14.0722 11.9222 14.1022C12.3522 14.1022 12.6422 14.0821 12.9222 14.0121C13.7022 13.8321 14.1722 13.2622 14.5822 12.6422C14.9022 12.1722 14.7222 11.6821 14.1722 11.5221V11.5321Z" fill="#1D1D1B"/>
<path d="M14.1722 11.5321C14.0354 11.492 13.8974 11.4565 13.7595 11.4209C13.4841 11.3499 13.2087 11.2788 12.9422 11.1722C12.2622 10.9022 11.7222 10.9921 11.2622 11.5921C11.0122 11.9121 10.7222 11.9221 10.3522 11.7421C10.0422 11.5921 9.7522 11.3922 9.4722 11.1722C8.7222 10.5822 7.99222 9.96224 7.42222 9.18224C7.14222 8.80224 7.16217 8.55224 7.44217 8.18224C7.55217 8.04224 7.66219 7.90206 7.77219 7.75206C7.91219 7.56206 7.96217 7.34219 7.87217 7.13219C7.61217 6.51219 7.34216 5.89209 7.05216 5.28209C6.88216 4.93209 6.45218 4.79207 6.13218 5.01207C5.52218 5.44207 5.01221 5.98205 4.85221 6.74205C4.67221 7.61205 4.89216 8.43225 5.30216 9.19225C6.20216 10.8922 7.58222 12.1422 9.17222 13.1622C10.0522 13.7222 11.0022 14.0722 11.9222 14.1022C12.3522 14.1022 12.6422 14.0821 12.9222 14.0121C13.7022 13.8321 14.1722 13.2622 14.5822 12.6422C14.9022 12.1722 14.7222 11.6821 14.1722 11.5221V11.5321Z" stroke="#1D1D1B"/>
<path d="M19.0822 8.53192C19.0722 8.35192 19.0522 8.17189 19.0122 8.00189C18.2422 4.15189 16.0322 1.58205 12.2622 0.412049C10.8522 -0.0279509 9.4022 -0.127941 7.9522 0.172059C3.8422 1.00206 1.3322 3.56193 0.262195 7.54193C-0.117805 8.95193 -0.0878193 10.402 0.372181 11.822C0.398791 11.9046 0.42501 11.9872 0.451194 12.0697C0.611961 12.5764 0.771411 13.079 1.0122 13.5519C1.1022 13.7319 1.11219 13.902 1.07219 14.092C1.00775 14.3976 0.944171 14.7036 0.88056 15.0098C0.638175 16.1764 0.395306 17.3454 0.102222 18.5019C-0.0277778 18.9919 0.202188 19.202 0.692188 19.082C1.18474 18.9655 1.6773 18.8501 2.16986 18.7347C3.1573 18.5034 4.14475 18.2721 5.13219 18.0319C5.30219 17.9919 5.4322 18.012 5.5822 18.082C7.9522 19.162 10.3722 19.252 12.8222 18.412C16.5922 17.112 19.1522 13.472 19.1322 9.34198C19.1222 9.16198 19.1022 8.84191 19.0822 8.52191V8.53192ZM17.0322 10.142C16.7722 12.922 15.3422 14.9921 12.8222 16.1821C10.6022 17.2321 8.33218 17.1819 6.12218 16.0519C5.76218 15.8719 5.44217 15.8221 5.05217 15.9321C4.55367 16.0698 4.04657 16.186 3.5224 16.306C3.24743 16.369 2.96776 16.4331 2.68218 16.5019C2.72325 16.2965 2.76003 16.0937 2.79629 15.8938C2.88362 15.4122 2.96797 14.9471 3.10222 14.5019C3.29222 13.8419 3.1922 13.2921 2.8922 12.6721C0.7222 8.20206 3.5922 2.86205 8.5122 2.16205C9.8322 1.97205 11.1022 2.15199 12.3522 2.60199C14.9322 3.53199 17.3922 6.37204 17.0422 10.152L17.0322 10.142Z" fill="#1D1D1B"/>
<path d="M19.0822 8.53192C19.0722 8.35192 19.0522 8.17189 19.0122 8.00189C18.2422 4.15189 16.0322 1.58205 12.2622 0.412049C10.8522 -0.0279509 9.4022 -0.127941 7.9522 0.172059C3.8422 1.00206 1.3322 3.56193 0.262195 7.54193C-0.117805 8.95193 -0.0878193 10.402 0.372181 11.822C0.398791 11.9046 0.42501 11.9872 0.451194 12.0697C0.611961 12.5764 0.771411 13.079 1.0122 13.5519C1.1022 13.7319 1.11219 13.902 1.07219 14.092C1.00775 14.3976 0.944171 14.7036 0.88056 15.0098C0.638175 16.1764 0.395306 17.3454 0.102222 18.5019C-0.0277778 18.9919 0.202188 19.202 0.692188 19.082C1.18474 18.9655 1.6773 18.8501 2.16986 18.7347C3.1573 18.5034 4.14475 18.2721 5.13219 18.0319C5.30219 17.9919 5.4322 18.012 5.5822 18.082C7.9522 19.162 10.3722 19.252 12.8222 18.412C16.5922 17.112 19.1522 13.472 19.1322 9.34198C19.1222 9.16198 19.1022 8.84191 19.0822 8.52191V8.53192ZM17.0322 10.142C16.7722 12.922 15.3422 14.9921 12.8222 16.1821C10.6022 17.2321 8.33218 17.1819 6.12218 16.0519C5.76218 15.8719 5.44217 15.8221 5.05217 15.9321C4.55367 16.0698 4.04657 16.186 3.5224 16.306C3.24743 16.369 2.96776 16.4331 2.68218 16.5019C2.72325 16.2965 2.76003 16.0937 2.79629 15.8938C2.88362 15.4122 2.96797 14.9471 3.10222 14.5019C3.29222 13.8419 3.1922 13.2921 2.8922 12.6721C0.7222 8.20206 3.5922 2.86205 8.5122 2.16205C9.8322 1.97205 11.1022 2.15199 12.3522 2.60199C14.9322 3.53199 17.3922 6.37204 17.0422 10.152L17.0322 10.142Z" stroke="#1D1D1B"/>
</svg>
